<?xml version="1.0" encoding="UTF-8" standalone="no"?>
<!-- Created with Inkscape (http://www.inkscape.org/) -->

<svg
   width="180"
   height="180"
   viewBox="0 0 180 180"
   version="1.1"
   id="svg5"
   xmlns="http://www.w3.org/2000/svg"
   xmlns:svg="http://www.w3.org/2000/svg">
  <defs
     id="defs2" />
  <g
     id="layer1">
    <path
       style="fill:#00ff00;stroke:#008c00;stroke-opacity:1;stroke-width:4;stroke-dasharray:none"
       d="m 101.95774,18.874711 c 44.3208,-20.3434906 72.63587,43.563694 59.24405,67.727164 -13.39182,24.163475 -1.52566,31.168005 3.69014,46.656285 10.28288,30.53498 -75.040172,39.51377 -108.450112,25.06762 C 23.031879,143.87963 4.9409554,133.73057 19.128996,112.03085 33.317035,90.331125 43.466098,82.993076 49.308692,77.028465 55.151286,71.063857 48.083859,48.198745 65.585048,35.391967 83.086237,22.585188 101.95774,18.874711 101.95774,18.874711 Z"
       id="path327" />
    <path
       id="path1484"
       style="fill:#005500;stroke:#008c00;stroke-width:3.72702;stroke-dasharray:none;stroke-opacity:1;fill-opacity:1"
       d="m 89.585523,50.436257 c -2.409992,0.451113 -0.0059,32.921875 -0.0059,32.921875 l 7.152344,43.701168 0.560547,-0.10351 26.515625,0.4375 c 0,0 17.98241,-3.13882 17.96289,-5.79883 -0.0195,-2.66001 -18.89062,-6.09766 -18.89062,-6.09766 l -16.98047,-0.29101 -5.78711,-35.289064 c 0,0 -8.117364,-29.931618 -10.527347,-29.480469 z" />
    <path
       style="fill:#6bff6b;fill-opacity:1;stroke:none;stroke-width:4;stroke-dasharray:none;stroke-opacity:1"
       d="m 136.17937,39.769529 c 0.60068,6.814795 -1.50406,15.519243 -11.18305,13.717972 -9.679,-1.80127 -15.53958,-7.958285 -15.32293,-12.962424 -0.83973,-14.804989 25.62071,-7.523042 26.50598,-0.755548 z"
       id="path1613" />
    <path
       style="fill:#6bff6b;fill-opacity:1;stroke:none;stroke-width:4;stroke-dasharray:none;stroke-opacity:1"
       d="m 150.94877,62.484071 c 0.60068,6.814795 -0.34455,6.043066 -9.59569,9.411112 -9.25116,3.368049 -7.64504,-1.787583 -7.42839,-6.791722 0.19051,-11.797328 16.22369,-13.521548 17.02408,-2.61939 z"
       id="path11497" />
  </g>
</svg>
